<svg xmlns="http://www.w3.org/2000/svg" viewBox="0 0 248.5 248.5"><defs><style>.cls-1{fill:#282828;}.cls-2{fill:none;stroke:#282828;stroke-miterlimit:10;stroke-width:0.5px;}</style></defs><title>bg_chart2bg_chart</title><g id="レイヤー_2" data-name="レイヤー 2"><g id="Layer_11" data-name="Layer 11"><g id="bg_chart2"><path class="cls-1" d="M123.88,134.05a9.52,9.52,0,1,1,9.52-9.52A9.53,9.53,0,0,1,123.88,134.05Zm0-18a8.52,8.52,0,1,0,8.52,8.52A8.53,8.53,0,0,0,123.88,116Z"/><path class="cls-1" d="M121.24,121a.39.39,0,0,1-.27-.11.37.37,0,0,1,0-.53l4.73-4.73a.37.37,0,0,1,.53.53l-4.73,4.73A.38.38,0,0,1,121.24,121Z"/><path class="cls-1" d="M115.64,128.12a.38.38,0,0,1-.26-.11.37.37,0,0,1,0-.53l2.34-2.35a.39.39,0,0,1,.53,0,.38.38,0,0,1,0,.54L115.91,128A.4.4,0,0,1,115.64,128.12Z"/><path class="cls-1" d="M113.39,135.61a.54.54,0,0,1-.36-.14.51.51,0,0,1,0-.71L134.76,113a.5.5,0,1,1,.71.71l-21.73,21.73A.52.52,0,0,1,113.39,135.61Z"/><path class="cls-1" d="M116.25,129.94a.4.4,0,0,1-.27-.11.39.39,0,0,1,0-.53l6.25-6.25a.39.39,0,0,1,.53,0,.37.37,0,0,1,0,.53l-6.25,6.25A.36.36,0,0,1,116.25,129.94Z"/><path class="cls-1" d="M118.42,121.52a.36.36,0,0,1-.27-.11.39.39,0,0,1,0-.53l3.6-3.59a.37.37,0,0,1,.53.53l-3.6,3.59A.34.34,0,0,1,118.42,121.52Z"/><path class="cls-1" d="M124.14,122a.38.38,0,0,1-.26-.11.37.37,0,0,1,0-.53l2.25-2.26a.39.39,0,0,1,.53,0,.37.37,0,0,1,0,.53l-2.25,2.26A.4.4,0,0,1,124.14,122Z"/><path class="cls-1" d="M120.41,133a.34.34,0,0,1-.26-.11.37.37,0,0,1,0-.53l2.69-2.69a.37.37,0,1,1,.53.53l-2.69,2.69A.36.36,0,0,1,120.41,133Z"/><path class="cls-1" d="M123.53,128.12a.38.38,0,0,1-.26-.11.37.37,0,0,1,0-.53l1.73-1.74a.38.38,0,0,1,.54.53L123.8,128A.39.39,0,0,1,123.53,128.12Z"/><path class="cls-1" d="M126.83,125.08a.4.4,0,0,1-.27-.11.39.39,0,0,1,0-.53L131,120a.39.39,0,0,1,.53,0,.37.37,0,0,1,0,.53L127.1,125A.4.4,0,0,1,126.83,125.08Z"/><path class="cls-1" d="M128.78,125.82a.38.38,0,0,1-.26-.11.37.37,0,0,1,0-.53l3.86-3.86a.37.37,0,0,1,.53,0,.39.39,0,0,1,0,.53l-3.86,3.86A.4.4,0,0,1,128.78,125.82Z"/><path class="cls-1" d="M126.48,127.68a.34.34,0,0,1-.26-.11.37.37,0,0,1,0-.53l.86-.87a.4.4,0,0,1,.54,0,.39.39,0,0,1,0,.53l-.87.87A.35.35,0,0,1,126.48,127.68Z"/><path class="cls-1" d="M127.23,129.6a.4.4,0,0,1-.27-.11.38.38,0,0,1,0-.53l3.16-3.17a.38.38,0,0,1,.53,0,.37.37,0,0,1,0,.53l-3.16,3.16A.4.4,0,0,1,127.23,129.6Z"/><path class="cls-1" d="M131.67,125.36a.38.38,0,0,1-.26-.11.37.37,0,0,1,0-.53l1-1a.39.39,0,0,1,.53,0,.37.37,0,0,1,0,.53l-.95,1A.4.4,0,0,1,131.67,125.36Z"/><path class="cls-1" d="M126.09,133.18a.34.34,0,0,1-.26-.11.37.37,0,0,1,0-.53l1.4-1.4a.37.37,0,1,1,.53.53l-1.4,1.4A.36.36,0,0,1,126.09,133.18Z"/><path class="cls-1" d="M94.84,89.64a7,7,0,1,1,7-7A7,7,0,0,1,94.84,89.64Zm0-13.17a6.21,6.21,0,1,0,6.21,6.21A6.22,6.22,0,0,0,94.84,76.47Z"/><path class="cls-1" d="M97.83,88.2a.47.47,0,0,1-.17,0,.41.41,0,0,1-.2-.55.4.4,0,0,1,.23-.21.42.42,0,0,1,.31,0,.41.41,0,0,1,.2.55.4.4,0,0,1-.23.21A.35.35,0,0,1,97.83,88.2Zm0-.58h-.06a.2.2,0,0,0-.09.09.16.16,0,0,0,.2.22.22.22,0,0,0,.1-.09.17.17,0,0,0-.08-.21Z"/><path class="cls-1" d="M91,78.62a.61.61,0,1,1,.6-.6A.6.6,0,0,1,91,78.62Zm0-1a.36.36,0,1,0,0,.71.36.36,0,0,0,0-.71Z"/><path class="cls-1" d="M91.37,88.17A1.13,1.13,0,1,1,92.49,87,1.12,1.12,0,0,1,91.37,88.17Zm0-2a.88.88,0,1,0,.87.87A.87.87,0,0,0,91.37,86.17Z"/><path class="cls-1" d="M95.57,79.76a.72.72,0,0,1-.32-.08.77.77,0,0,1-.38-1h0a.73.73,0,0,1,.44-.4.78.78,0,0,1,1,1.06A.8.8,0,0,1,95.57,79.76Zm0-1.32a.58.58,0,0,0-.19,0,.55.55,0,0,0-.3.28h0a.58.58,0,0,0,0,.41.55.55,0,0,0,.28.3.54.54,0,0,0,.73-.67.55.55,0,0,0-.28-.3A.59.59,0,0,0,95.58,78.44Z"/><path class="cls-1" d="M97.62,82a.63.63,0,0,1-.3-.07A.72.72,0,0,1,97,81h0a.73.73,0,0,1,1-.35.68.68,0,0,1,.37.41.7.7,0,0,1,0,.55A.74.74,0,0,1,97.62,82Zm-.43-.93a.53.53,0,0,0,0,.37.55.55,0,0,0,.25.27.45.45,0,0,0,.36,0,.46.46,0,0,0,.27-.24.48.48,0,0,0,0-.37.51.51,0,0,0-.25-.27A.48.48,0,0,0,97.19,81.11Z"/><path class="cls-1" d="M93.87,82.31a1.14,1.14,0,0,1-.51-.11,1.21,1.21,0,0,1-.64-.69,1.23,1.23,0,0,1,0-.94h0a1.23,1.23,0,0,1,2.23,1,1.22,1.22,0,0,1-.7.64A1.16,1.16,0,0,1,93.87,82.31ZM93,80.68a1,1,0,0,0,0,.74,1,1,0,0,0,1.25.58,1,1,0,0,0,.55-.5A1,1,0,1,0,93,80.68Z"/><path class="cls-1" d="M93.33,79.47a.33.33,0,0,1-.17,0A.37.37,0,0,1,93,79.2a.37.37,0,0,1,0-.31h0a.41.41,0,0,1,.55-.2.4.4,0,0,1,.21.23.42.42,0,0,1,0,.31.43.43,0,0,1-.24.22Zm0-.57h0a.14.14,0,0,0-.09.08h0a.17.17,0,0,0,0,.12.18.18,0,0,0,.09.1.17.17,0,0,0,.12,0,.14.14,0,0,0,.09-.08.15.15,0,0,0,0-.13.14.14,0,0,0-.08-.09Z"/><path class="cls-1" d="M101.26,83.93H95.53a.26.26,0,0,1-.25-.25.25.25,0,0,1,.25-.25h5.73a.25.25,0,0,1,.25.25A.26.26,0,0,1,101.26,83.93Z"/><path class="cls-1" d="M101.18,84.83H93.12a.25.25,0,0,1-.25-.25.25.25,0,0,1,.25-.25h8.06a.26.26,0,0,1,.25.25A.25.25,0,0,1,101.18,84.83Z"/><path class="cls-1" d="M100.87,85.68h-4a.25.25,0,0,1,0-.5h4a.25.25,0,0,1,0,.5Z"/><path class="cls-1" d="M91.24,79.86h-2a.25.25,0,0,1,0-.5h2a.25.25,0,0,1,0,.5Z"/><path class="cls-1" d="M92.11,80.64H88.68a.25.25,0,0,1,0-.5h3.43a.25.25,0,0,1,0,.5Z"/><path class="cls-1" d="M90.54,81.41h-2a.25.25,0,0,1,0-.5h2a.25.25,0,0,1,0,.5Z"/><path class="cls-1" d="M99.79,78.51H97.63a.25.25,0,0,1,0-.5h2.16a.25.25,0,0,1,0,.5Z"/><path class="cls-1" d="M100.13,79.19h-1a.25.25,0,0,1,0-.5h1a.25.25,0,0,1,0,.5Z"/><path class="cls-1" d="M100.85,80.1H98.66a.25.25,0,0,1,0-.5h2.19a.25.25,0,0,1,0,.5Z"/><path class="cls-1" d="M90.8,84H88.56a.25.25,0,0,1,0-.5H90.8a.25.25,0,0,1,0,.5Z"/><path class="cls-1" d="M89.79,83H88.4a.25.25,0,0,1,0-.5h1.39a.25.25,0,0,1,0,.5Z"/><path class="cls-1" d="M89.41,85.1h-.77a.26.26,0,0,1-.25-.25.25.25,0,0,1,.25-.25h.77a.25.25,0,0,1,.25.25A.25.25,0,0,1,89.41,85.1Z"/><path class="cls-1" d="M170.76,234.56a7,7,0,1,1,7-7A7,7,0,0,1,170.76,234.56Zm0-13.17A6.21,6.21,0,1,0,177,227.6,6.22,6.22,0,0,0,170.76,221.39Z"/><path class="cls-1" d="M173.75,233.12a.47.47,0,0,1-.17,0,.45.45,0,0,1-.22-.23.44.44,0,0,1,0-.32h0a.4.4,0,0,1,.23-.21.42.42,0,0,1,.31,0,.45.45,0,0,1,.22.23.44.44,0,0,1,0,.32.4.4,0,0,1-.23.21A.35.35,0,0,1,173.75,233.12Zm0-.58h-.06a.2.2,0,0,0-.09.09h0a.17.17,0,0,0,0,.12.14.14,0,0,0,.08.09.15.15,0,0,0,.13,0,.14.14,0,0,0,.09-.08.17.17,0,0,0,0-.12.14.14,0,0,0-.08-.09Z"/><path class="cls-1" d="M166.94,223.54a.61.61,0,1,1,.6-.6A.6.6,0,0,1,166.94,223.54Zm0-1a.36.36,0,1,0,0,.71.36.36,0,0,0,0-.71Z"/><path class="cls-1" d="M167.29,233.09a1.13,1.13,0,1,1,1.13-1.13A1.13,1.13,0,0,1,167.29,233.09Zm0-2a.88.88,0,1,0,.88.88A.88.88,0,0,0,167.29,231.08Z"/><path class="cls-1" d="M171.5,224.68a.73.73,0,0,1-.33-.08.74.74,0,0,1-.41-.44.78.78,0,0,1,0-.6.73.73,0,0,1,.44-.4.74.74,0,0,1,.6,0,.78.78,0,0,1,.4.44.74.74,0,0,1,0,.6.8.8,0,0,1-.44.41A.86.86,0,0,1,171.5,224.68Zm0-1.32a.58.58,0,0,0-.19,0,.55.55,0,0,0-.3.28.53.53,0,0,0,0,.41.5.5,0,0,0,.27.3.54.54,0,0,0,.71-.26.53.53,0,0,0,0-.41.55.55,0,0,0-.28-.3A.59.59,0,0,0,171.5,223.36Z"/><path class="cls-1" d="M173.54,227a.63.63,0,0,1-.3-.07.73.73,0,0,1-.36-1h0a.73.73,0,0,1,.41-.38.78.78,0,0,1,.56,0,.68.68,0,0,1,.37.41.7.7,0,0,1,0,.55.73.73,0,0,1-.41.38A.69.69,0,0,1,173.54,227Zm0-1.2a.45.45,0,0,0-.16,0,.46.46,0,0,0-.27.24h0a.48.48,0,0,0,.23.64.48.48,0,0,0,.4-.87A.45.45,0,0,0,173.54,225.76Z"/><path class="cls-1" d="M169.79,227.23a1.14,1.14,0,0,1-.51-.11,1.21,1.21,0,0,1-.64-.69,1.23,1.23,0,0,1,0-.94h0a1.24,1.24,0,1,1,1.11,1.74Zm0-2.2a1,1,0,0,0-.89.56h0a1,1,0,1,0,1.3-.47A1,1,0,0,0,169.8,225Z"/><path class="cls-1" d="M169.25,224.39a.35.35,0,0,1-.17,0,.4.4,0,0,1-.21-.23.37.37,0,0,1,0-.31h0a.45.45,0,0,1,.23-.22.44.44,0,0,1,.32,0,.4.4,0,0,1,.21.23.37.37,0,0,1,0,.31A.39.39,0,0,1,169.25,224.39Zm0-.57h-.05a.14.14,0,0,0-.09.08h0a.17.17,0,0,0,0,.12.13.13,0,0,0,.09.09.16.16,0,0,0,.21-.07.15.15,0,0,0,0-.13.14.14,0,0,0-.08-.09Z"/><path class="cls-1" d="M177.18,228.85h-5.72a.25.25,0,0,1-.25-.25.25.25,0,0,1,.25-.25h5.72a.25.25,0,0,1,.25.25A.26.26,0,0,1,177.18,228.85Z"/><path class="cls-1" d="M177.1,229.75H169a.25.25,0,0,1-.25-.25.25.25,0,0,1,.25-.25h8.06a.26.26,0,0,1,.25.25A.25.25,0,0,1,177.1,229.75Z"/><path class="cls-1" d="M176.79,230.6h-3.95a.25.25,0,0,1,0-.5h3.95a.25.25,0,0,1,0,.5Z"/><path class="cls-1" d="M167.16,224.78h-2a.25.25,0,0,1-.25-.25.25.25,0,0,1,.25-.25h2a.25.25,0,0,1,.25.25A.25.25,0,0,1,167.16,224.78Z"/><path class="cls-1" d="M168,225.56H164.6a.25.25,0,1,1,0-.5H168a.25.25,0,1,1,0,.5Z"/><path class="cls-1" d="M166.46,226.33h-2a.26.26,0,0,1-.25-.25.25.25,0,0,1,.25-.25h2a.25.25,0,0,1,.25.25A.25.25,0,0,1,166.46,226.33Z"/><path class="cls-1" d="M175.71,223.43h-2.16a.25.25,0,0,1-.25-.25.25.25,0,0,1,.25-.25h2.16a.25.25,0,0,1,.25.25A.26.26,0,0,1,175.71,223.43Z"/><path class="cls-1" d="M176.05,224.11h-1a.25.25,0,1,1,0-.5h1a.25.25,0,0,1,0,.5Z"/><path class="cls-1" d="M176.77,225h-2.19a.25.25,0,0,1,0-.5h2.19a.25.25,0,0,1,0,.5Z"/><path class="cls-1" d="M166.72,228.93h-2.24a.26.26,0,0,1-.25-.25.25.25,0,0,1,.25-.25h2.24a.25.25,0,0,1,.25.25A.25.25,0,0,1,166.72,228.93Z"/><path class="cls-1" d="M165.71,227.9h-1.39a.25.25,0,0,1,0-.5h1.39a.25.25,0,0,1,0,.5Z"/><path class="cls-1" d="M165.33,230h-.77a.25.25,0,0,1-.25-.25.26.26,0,0,1,.25-.25h.77a.25.25,0,0,1,.25.25A.25.25,0,0,1,165.33,230Z"/><path class="cls-1" d="M114.35,47.9a10,10,0,1,1,7.1-2.94A10,10,0,0,1,114.35,47.9Zm0-19.08a9,9,0,1,0,6.4,2.64A9,9,0,0,0,114.35,28.82Z"/><path class="cls-1" d="M121.27,31.44H107.83a.25.25,0,0,1,0-.5h13.44a.25.25,0,1,1,0,.5Z"/><path class="cls-1" d="M122.51,33.75H106.34a.25.25,0,0,1,0-.5h16.17a.25.25,0,0,1,0,.5Z"/><path class="cls-1" d="M123.06,35.17H110.8a.25.25,0,0,1,0-.5h12.26a.25.25,0,0,1,0,.5Z"/><path class="cls-1" d="M120.14,36.45H104.89a.25.25,0,0,1-.25-.25.25.25,0,0,1,.25-.25h15.25a.25.25,0,0,1,.25.25A.25.25,0,0,1,120.14,36.45Z"/><path class="cls-1" d="M123.57,38.33H105a.25.25,0,0,1-.25-.25.25.25,0,0,1,.25-.25h18.56a.25.25,0,0,1,.25.25A.25.25,0,0,1,123.57,38.33Z"/><path class="cls-1" d="M123.63,39.66h-6.06a.25.25,0,0,1,0-.5h6.06a.25.25,0,0,1,0,.5Z"/><path class="cls-1" d="M118.78,41.12H105.46a.25.25,0,0,1,0-.5h13.32a.25.25,0,0,1,0,.5Z"/><path class="cls-1" d="M122.36,42.85h-16a.26.26,0,0,1-.26-.25.26.26,0,0,1,.26-.25h16a.25.25,0,0,1,.25.25A.25.25,0,0,1,122.36,42.85Z"/><path class="cls-1" d="M121.15,44.3h-7.41a.25.25,0,0,1,0-.5h7.41a.25.25,0,0,1,0,.5Z"/><path class="cls-1" d="M119.63,45.79H109.38a.25.25,0,0,1,0-.5h10.25a.25.25,0,0,1,0,.5Z"/><path class="cls-1" d="M139.1,199.12a.53.53,0,0,1-.18,0,.43.43,0,0,1-.23-.25.42.42,0,0,1,0-.33h0a.43.43,0,0,1,.57-.21.45.45,0,0,1,.22.25.43.43,0,0,1-.4.58Zm0-.62a.18.18,0,0,0-.17.11h0a.17.17,0,0,0,0,.14.18.18,0,0,0,.09.1.22.22,0,0,0,.14,0,.17.17,0,0,0,.1-.1.17.17,0,0,0,0-.14.19.19,0,0,0-.1-.1Z"/><path class="cls-1" d="M133.74,197.56a.37.37,0,0,1-.18,0,.41.41,0,0,1-.21-.57h0a.43.43,0,0,1,.57-.21.4.4,0,0,1,.22.24.42.42,0,0,1,0,.33A.42.42,0,0,1,133.74,197.56Zm0-.61a.19.19,0,0,0-.17.1h0a.17.17,0,0,0,0,.14.17.17,0,0,0,.09.11.17.17,0,0,0,.14,0,.15.15,0,0,0,.1-.09.17.17,0,0,0,0-.14.18.18,0,0,0-.09-.1A.13.13,0,0,0,133.74,197Z"/><path class="cls-1" d="M136.38,204.76a7.47,7.47,0,1,1,7.47-7.47A7.48,7.48,0,0,1,136.38,204.76Zm0-14.19a6.72,6.72,0,1,0,6.72,6.72A6.73,6.73,0,0,0,136.38,190.57Z"/><path class="cls-1" d="M132.26,192.91a.65.65,0,0,1,0-1.29.65.65,0,0,1,0,1.29Zm0-1a.4.4,0,1,0,.39.4A.39.39,0,0,0,132.26,191.87Z"/><path class="cls-1" d="M130.44,199.26a1.21,1.21,0,1,1,1.2-1.21A1.21,1.21,0,0,1,130.44,199.26Zm0-2.16a1,1,0,1,0,.95,1A1,1,0,0,0,130.44,197.1Z"/><path class="cls-1" d="M136.28,204.5a.68.68,0,0,1-.65-.45.7.7,0,0,1,0-.53h0a.68.68,0,0,1,.91-.34.69.69,0,0,1,.34.92A.7.7,0,0,1,136.28,204.5Zm0-1.13a.45.45,0,0,0-.4.25h0a.45.45,0,0,0,0,.34.43.43,0,0,0,.23.25.44.44,0,0,0,.37-.8A.43.43,0,0,0,136.28,203.37Z"/><path class="cls-1" d="M142.23,200.44a.63.63,0,0,1-.27-.06.62.62,0,0,1-.33-.36.64.64,0,0,1,0-.49.65.65,0,0,1,.36-.33.64.64,0,0,1,.49,0,.65.65,0,0,1,.33.36.64.64,0,0,1,0,.49.65.65,0,0,1-.36.33A.57.57,0,0,1,142.23,200.44Zm0-1a.38.38,0,0,0-.35.23h0a.37.37,0,0,0,0,.29.4.4,0,0,0,.2.22.38.38,0,0,0,.52-.19.36.36,0,0,0,0-.29.34.34,0,0,0-.2-.22A.32.32,0,0,0,142.23,199.41Z"/><path class="cls-1" d="M140.18,203.32a.59.59,0,0,1-.23,0,.55.55,0,0,1-.26-.71h0a.55.55,0,0,1,.71-.26.5.5,0,0,1,.27.3.53.53,0,0,1,0,.41.55.55,0,0,1-.3.28A.57.57,0,0,1,140.18,203.32Zm-.26-.65a.28.28,0,0,0,.14.37.27.27,0,0,0,.37-.14.28.28,0,1,0-.51-.23Z"/><path class="cls-1" d="M138.41,201a.94.94,0,0,1-.36-.08.83.83,0,0,1-.43-.47.89.89,0,0,1,0-.64.83.83,0,0,1,.47-.43.79.79,0,0,1,.64,0,.83.83,0,0,1,.43.47.79.79,0,0,1,0,.64.83.83,0,0,1-.47.43A.92.92,0,0,1,138.41,201Zm0-1.42a.45.45,0,0,0-.2,0,.58.58,0,0,0-.35.75.6.6,0,0,0,.3.33.58.58,0,0,0,.45,0,.6.6,0,0,0,.33-.3.63.63,0,0,0,0-.45.66.66,0,0,0-.31-.33A.64.64,0,0,0,138.41,199.59Z"/><path class="cls-1" d="M141.14,194.45a1.12,1.12,0,0,1-.47-.11,1.06,1.06,0,0,1-.58-.63,1.09,1.09,0,0,1,0-.85h0a1.11,1.11,0,0,1,2,.94,1.09,1.09,0,0,1-.63.58A1,1,0,0,1,141.14,194.45Zm-.79-1.48a.87.87,0,0,0,.42,1.15.87.87,0,1,0,.73-1.58.87.87,0,0,0-1.15.43Z"/><path class="cls-1" d="M138.76,193.06a.74.74,0,0,1-.32-.07.77.77,0,0,1-.37-1,.74.74,0,0,1,.43-.4.76.76,0,0,1,.59,0,.74.74,0,0,1,.4.43.8.8,0,0,1,0,.59A.79.79,0,0,1,138.76,193.06Zm0-1.29a.51.51,0,0,0-.17,0,.5.5,0,0,0-.3.27h0a.51.51,0,0,0,.25.69.53.53,0,0,0,.7-.25.53.53,0,0,0-.25-.7A.59.59,0,0,0,138.76,191.77Z"/><path class="cls-1" d="M132,196.93a.72.72,0,0,1-.29-.06.69.69,0,0,1-.34-.92h0a.7.7,0,0,1,.92-.33.69.69,0,0,1,.33.91A.66.66,0,0,1,132,196.93Zm-.4-.87a.44.44,0,0,0,.21.58.44.44,0,1,0,.37-.8A.44.44,0,0,0,131.56,196.06Z"/><path class="cls-1" d="M133.11,199.54a.69.69,0,0,1-.24,0,.6.6,0,0,1-.29-.32.58.58,0,0,1,0-.43.6.6,0,0,1,.32-.29.58.58,0,0,1,.43,0,.56.56,0,0,1,.27.74A.56.56,0,0,1,133.11,199.54Zm0-.87a.22.22,0,0,0-.11,0,.27.27,0,0,0-.17.16h0a.27.27,0,0,0,0,.23.31.31,0,0,0,.16.18.31.31,0,0,0,.41-.15.29.29,0,0,0,0-.24.27.27,0,0,0-.16-.17A.28.28,0,0,0,133.11,198.67Z"/><path class="cls-1" d="M142.47,197.79a.85.85,0,0,1-.35-.08.83.83,0,0,1-.41-1.11.84.84,0,0,1,1.11-.41.81.81,0,0,1,.44.47.85.85,0,0,1-.79,1.13Zm0-1.43a.59.59,0,0,0-.53.34.59.59,0,1,0,.78-.28A.57.57,0,0,0,142.47,196.36Z"/><path class="cls-1" d="M135.74,193a1.19,1.19,0,0,1-.55-.12,1.31,1.31,0,0,1-.64-1.74h0a1.3,1.3,0,0,1,.74-.68,1.33,1.33,0,0,1,1,0,1.31,1.31,0,0,1-.55,2.5Zm-1-1.75a1.06,1.06,0,1,0,1.41-.52,1,1,0,0,0-.81,0,1,1,0,0,0-.6.55Z"/><path class="cls-1" d="M138.85,197.52a1.17,1.17,0,0,1-.55-.13,1.28,1.28,0,0,1-.68-.73,1.31,1.31,0,0,1,0-1h0a1.3,1.3,0,0,1,.74-.68,1.29,1.29,0,0,1,1,.05,1.31,1.31,0,0,1,.64,1.74A1.33,1.33,0,0,1,138.85,197.52Zm0-2.38a1,1,0,0,0-.37.07,1.06,1.06,0,0,0-.59.55h0a1,1,0,0,0,0,.81,1,1,0,0,0,.55.6,1.06,1.06,0,0,0,.9-1.93A1.22,1.22,0,0,0,138.85,195.14Z"/><path class="cls-1" d="M135.45,195.45a.58.58,0,0,1-.18,0,.44.44,0,0,1-.21-.58h0a.43.43,0,1,1,.78.37A.44.44,0,0,1,135.45,195.45Zm-.17-.51a.18.18,0,0,0,.09.24.2.2,0,0,0,.25-.09.17.17,0,0,0,0-.14.22.22,0,0,0-.09-.1.23.23,0,0,0-.14,0A.18.18,0,0,0,135.28,194.94Z"/><path class="cls-1" d="M137.79,202.7a.39.39,0,0,1-.18,0,.44.44,0,0,1-.21-.58h0a.43.43,0,1,1,.78.37A.42.42,0,0,1,137.79,202.7Zm-.16-.51a.17.17,0,0,0,.08.24.2.2,0,0,0,.25-.09.18.18,0,1,0-.33-.15Z"/><path class="cls-1" d="M79.73,219.11a4.76,4.76,0,0,1-2-.41h0a3.93,3.93,0,0,1-2.14-3.89,4.51,4.51,0,0,0-.56-2.16,7.87,7.87,0,0,1-.8-4.8A4.53,4.53,0,0,1,76.56,205a6.36,6.36,0,0,1,4.61-.71c.88.29,1.4,1.12,2,2.07a8.16,8.16,0,0,0,3.26,3.34,2.29,2.29,0,0,1,1.38,1.66c.28,1.72-1.72,3.72-3.33,5.34l-.66.68A5.63,5.63,0,0,1,79.73,219.11ZM78.05,218a4.7,4.7,0,0,0,5.21-1.2l.68-.69c1.33-1.34,3.34-3.35,3.12-4.69a1.57,1.57,0,0,0-1-1.11,8.81,8.81,0,0,1-3.55-3.61c-.54-.87-1-1.55-1.6-1.76a5.69,5.69,0,0,0-4,.66,3.81,3.81,0,0,0-2,2.4,7.2,7.2,0,0,0,.77,4.35,5,5,0,0,1,.6,2.59A3.21,3.21,0,0,0,78.05,218Z"/><path class="cls-1" d="M77.88,218.08h0a.26.26,0,0,1-.22-.28,1.55,1.55,0,0,0,0-.23,2.48,2.48,0,0,1,2-2.69,3.92,3.92,0,0,1,4,1.21,1,1,0,0,1,.12,1.13.25.25,0,1,1-.41-.29c.12-.17,0-.41-.12-.54a3.44,3.44,0,0,0-3.47-1,2,2,0,0,0-1.6,2.22,2.36,2.36,0,0,1,0,.29A.26.26,0,0,1,77.88,218.08Z"/><path class="cls-1" d="M86.85,213.37h0c-.1,0-2.48-.53-3.1-2.3a1.67,1.67,0,0,1,0-1.51,1.43,1.43,0,0,1,1-.58.24.24,0,0,1,.27.23.25.25,0,0,1-.23.26h0a1,1,0,0,0-.66.37,1.2,1.2,0,0,0,0,1.07c.53,1.5,2.71,2,2.73,2a.24.24,0,0,1,.19.29A.25.25,0,0,1,86.85,213.37Z"/><path class="cls-1" d="M79.62,212a2.88,2.88,0,0,1-2.07-1.09,1.72,1.72,0,0,1-.54-1.42,3.14,3.14,0,0,1,1.39-1.89l.1,0c.36,0,2.17-.25,2.72.2.71.59.57,2.24,0,3.26a1.81,1.81,0,0,1-1.37,1Zm-1-4a2.59,2.59,0,0,0-1.12,1.5,1.23,1.23,0,0,0,.4,1,2.41,2.41,0,0,0,1.86.93,1.36,1.36,0,0,0,1-.72c.51-.89.57-2.26.13-2.63A4.94,4.94,0,0,0,78.63,208.07Z"/><path class="cls-1" d="M57.51,27.47h0a3.33,3.33,0,0,1-3-2.27,3.69,3.69,0,0,0-1.15-1.41A6.58,6.58,0,0,1,51,20.39a3.77,3.77,0,0,1,.79-3.05,5.39,5.39,0,0,1,3.29-2.16,3.63,3.63,0,0,1,2.27.9A6.74,6.74,0,0,0,61,17.49a2,2,0,0,1,1.67.81c.81,1.24,0,3.47-.69,5.26l-.27.74A4.63,4.63,0,0,1,57.51,27.47ZM55.27,15.92h-.1a4.67,4.67,0,0,0-2.77,1.86,3.15,3.15,0,0,0-.66,2.45,6,6,0,0,0,2.06,3A4,4,0,0,1,55.17,25a2.62,2.62,0,0,0,2.3,1.68h0A3.83,3.83,0,0,0,61,24.05c.08-.23.18-.48.28-.75.54-1.46,1.37-3.67.76-4.59a1.27,1.27,0,0,0-1.08-.47,7.39,7.39,0,0,1-4-1.53A3.48,3.48,0,0,0,55.27,15.92Z"/><path class="cls-1" d="M57.28,27a.25.25,0,0,1-.24-.18L57,26.6a2.11,2.11,0,0,1,.57-2.77,3.3,3.3,0,0,1,3.52-.46.83.83,0,0,1,.5.86.25.25,0,0,1-.29.19.24.24,0,0,1-.2-.29c0-.15-.17-.28-.26-.33a2.81,2.81,0,0,0-2.94.41,1.61,1.61,0,0,0-.45,2.18c0,.1.08.18.1.24a.25.25,0,0,1-.17.31Z"/><path class="cls-1" d="M61.53,20.38a3,3,0,0,1-2.19-.79,1.43,1.43,0,0,1-.5-1.2,1.27,1.27,0,0,1,.61-.83.25.25,0,0,1,.34.1.26.26,0,0,1-.1.34.72.72,0,0,0-.35.47,1,1,0,0,0,.36.78c.91.94,2.69.54,2.71.54a.25.25,0,0,1,.3.19.25.25,0,0,1-.19.3A4.62,4.62,0,0,1,61.53,20.38Z"/><path class="cls-1" d="M55.86,21.88a3.27,3.27,0,0,1-1.23-.27,1.47,1.47,0,0,1-.92-.92,2.69,2.69,0,0,1,.41-2l.08-.08c.36-.22,1.6-.93,2.16-.78.76.2,1.24,1.53,1.15,2.52a1.55,1.55,0,0,1-.73,1.24A1.72,1.72,0,0,1,55.86,21.88Zm-1.35-2.82a2.11,2.11,0,0,0-.32,1.48,1,1,0,0,0,.63.61,2,2,0,0,0,1.7.07,1.12,1.12,0,0,0,.49-.86c.09-.9-.37-1.89-.78-2A4,4,0,0,0,54.51,19.06Z"/><path class="cls-1" d="M171,91a8.55,8.55,0,1,1,6.05-14.6,8.56,8.56,0,0,1,0,12.09h0A8.49,8.49,0,0,1,171,91Zm0-16.1a7.55,7.55,0,1,0,5.34,12.89,7.57,7.57,0,0,0,0-10.68A7.47,7.47,0,0,0,171,74.9Z"/><path class="cls-1" d="M175.94,85.09h-.57a.25.25,0,0,1-.25-.25.25.25,0,0,1,.25-.25h.57a.26.26,0,0,1,.25.25A.25.25,0,0,1,175.94,85.09Z"/><path class="cls-1" d="M172,82.18h-1.51a.25.25,0,0,1,0-.5H172a.25.25,0,0,1,0,.5Z"/><path class="cls-1" d="M169.15,83c-1,0-1.67-.41-1.67-1s.72-1,1.67-1,1.67.41,1.67,1S170.1,83,169.15,83Zm0-1.41c-.7,0-1.17.27-1.17.45s.47.46,1.17.46,1.17-.27,1.17-.46S169.85,81.58,169.15,81.58Z"/><path class="cls-1" d="M174.5,87.18c-.74,0-1.29-.31-1.29-.73s.55-.73,1.29-.73,1.29.31,1.29.73S175.25,87.18,174.5,87.18Zm0-1a1,1,0,0,0-.79.24,1.15,1.15,0,0,0,.79.22,1.07,1.07,0,0,0,.79-.23A1.07,1.07,0,0,0,174.5,86.22Z"/><path class="cls-1" d="M175.22,89.44h-8.15a.25.25,0,0,1,0-.5h8.15a.25.25,0,0,1,0,.5Z"/><path class="cls-1" d="M172.45,88.63h-5.14a.25.25,0,0,1,0-.5h5.14a.25.25,0,0,1,0,.5Z"/><path class="cls-1" d="M178.13,86.72h-2.51a.25.25,0,0,1-.25-.25.25.25,0,0,1,.25-.25h2.51a.25.25,0,0,1,.25.25A.25.25,0,0,1,178.13,86.72Z"/><path class="cls-1" d="M177,87.91h-3.75a.25.25,0,0,1,0-.5H177a.25.25,0,0,1,0,.5Z"/><path class="cls-1" d="M173.14,85.66h-9.51a.25.25,0,0,1,0-.5h9.51a.25.25,0,0,1,0,.5Z"/><path class="cls-1" d="M165.43,86.7h-1.28a.25.25,0,0,1,0-.5h1.28a.25.25,0,0,1,0,.5Z"/><path class="cls-1" d="M172.6,86.72h-5.31a.25.25,0,0,1-.25-.25.25.25,0,0,1,.25-.25h5.31a.25.25,0,0,1,.25.25A.25.25,0,0,1,172.6,86.72Z"/><path class="cls-1" d="M170.8,87.69h-5.88a.25.25,0,0,1,0-.5h5.88a.25.25,0,0,1,0,.5Z"/><path class="cls-1" d="M178.88,84.1h-9.76a.25.25,0,0,1-.25-.25.25.25,0,0,1,.25-.25h9.76a.26.26,0,0,1,.25.25A.25.25,0,0,1,178.88,84.1Z"/><path class="cls-1" d="M167.83,82.42h-4.62a.25.25,0,0,1-.25-.25.25.25,0,0,1,.25-.25h4.62a.25.25,0,0,1,.25.25A.25.25,0,0,1,167.83,82.42Z"/><path class="cls-1" d="M168.42,79.29H164.1a.25.25,0,0,1-.25-.25.25.25,0,0,1,.25-.25h4.32a.25.25,0,0,1,.25.25A.25.25,0,0,1,168.42,79.29Z"/><path class="cls-1" d="M177.47,78.15H168a.25.25,0,0,1,0-.5h9.47a.25.25,0,0,1,0,.5Z"/><path class="cls-1" d="M178.36,79.11h-4.65a.25.25,0,0,1-.25-.25.25.25,0,0,1,.25-.25h4.65a.25.25,0,0,1,.25.25A.25.25,0,0,1,178.36,79.11Z"/><path class="cls-1" d="M179.1,81.56h-5.26a.25.25,0,0,1,0-.5h5.26a.25.25,0,0,1,0,.5Z"/><path class="cls-1" d="M173.69,76.89H166a.25.25,0,0,1,0-.5h7.66a.25.25,0,0,1,0,.5Z"/><path class="cls-1" d="M169.44,76h-2.2a.25.25,0,0,1,0-.5h2.2a.25.25,0,0,1,0,.5Z"/><path class="cls-1" d="M171.91,75.33h-1.53a.25.25,0,0,1,0-.5h1.53a.25.25,0,0,1,0,.5Z"/><path class="cls-1" d="M175.17,76.05h-3.66a.25.25,0,0,1,0-.5h3.66a.25.25,0,0,1,0,.5Z"/><path class="cls-1" d="M172.6,80.18h-2a.25.25,0,0,1-.25-.25.25.25,0,0,1,.25-.25h2a.25.25,0,0,1,.25.25A.25.25,0,0,1,172.6,80.18Z"/><path class="cls-1" d="M166.25,84.06h-1.58a.25.25,0,0,1-.25-.25.25.25,0,0,1,.25-.25h1.58a.25.25,0,0,1,.25.25A.25.25,0,0,1,166.25,84.06Z"/><path class="cls-1" d="M172.9,82.92h-.57a.25.25,0,0,1,0-.5h.57a.25.25,0,0,1,0,.5Z"/><path class="cls-1" d="M166.67,80.87H165a.25.25,0,0,1,0-.5h1.66a.25.25,0,0,1,0,.5Z"/><path class="cls-1" d="M166.42,78.08h-.37a.26.26,0,0,1-.25-.25.25.25,0,0,1,.25-.25h.37a.25.25,0,0,1,.25.25A.25.25,0,0,1,166.42,78.08Z"/><path class="cls-1" d="M106,161.6h-3.26a.25.25,0,1,1,0-.5H106a.25.25,0,1,1,0,.5Z"/><path class="cls-1" d="M107.92,161.78h-1a.25.25,0,0,1,0-.5h1a.25.25,0,0,1,0,.5Z"/><path class="cls-1" d="M104.48,163.07h-3.83a.25.25,0,0,1-.25-.25.25.25,0,0,1,.25-.25h3.83a.25.25,0,0,1,.25.25A.25.25,0,0,1,104.48,163.07Z"/><path class="cls-1" d="M103.28,163.92a6.95,6.95,0,1,1,4.91-2h0A6.92,6.92,0,0,1,103.28,163.92Zm0-13.13a6.19,6.19,0,1,0,4.38,10.56h0a6.19,6.19,0,0,0-4.38-10.56Z"/><path class="cls-1" d="M108.81,153.83H104a.25.25,0,0,1-.25-.25.25.25,0,0,1,.25-.25h4.86a.25.25,0,0,1,.25.25A.25.25,0,0,1,108.81,153.83Z"/><path class="cls-1" d="M99.8,154.64H97.39a.25.25,0,1,1,0-.5H99.8a.25.25,0,1,1,0,.5Z"/><path class="cls-1" d="M103.19,155.89H96.76a.25.25,0,1,1,0-.5h6.43a.25.25,0,0,1,0,.5Z"/><path class="cls-1" d="M105.91,152.67h-3.7a.25.25,0,0,1-.25-.25.25.25,0,0,1,.25-.25h3.7a.25.25,0,0,1,.25.25A.25.25,0,0,1,105.91,152.67Z"/><path class="cls-1" d="M107.25,155.84h-2.32a.25.25,0,0,1-.25-.25.25.25,0,0,1,.25-.25h2.32a.25.25,0,0,1,.25.25A.25.25,0,0,1,107.25,155.84Z"/><path class="cls-1" d="M100.11,159.59H97.34a.25.25,0,0,1,0-.5h2.77a.25.25,0,0,1,0,.5Z"/><path class="cls-1" d="M103.23,158.7h-1.78a.25.25,0,1,1,0-.5h1.78a.25.25,0,1,1,0,.5Z"/><path class="cls-1" d="M109.3,158.83h-4.59a.25.25,0,0,1-.25-.25.25.25,0,0,1,.25-.25h4.59a.25.25,0,0,1,.25.25A.25.25,0,0,1,109.3,158.83Z"/><path class="cls-1" d="M109.3,160.22h-4a.25.25,0,0,1-.25-.25.25.25,0,0,1,.25-.25h4a.25.25,0,0,1,.25.25A.25.25,0,0,1,109.3,160.22Z"/><path class="cls-1" d="M104.08,160h-.89a.25.25,0,0,1-.25-.25.25.25,0,0,1,.25-.25h.89a.25.25,0,0,1,.25.25A.25.25,0,0,1,104.08,160Z"/><path class="cls-1" d="M105.29,101.65a.23.23,0,0,1-.14,0,.32.32,0,0,1-.16-.43h0a.35.35,0,0,1,.44-.16.35.35,0,0,1,.17.19.31.31,0,0,1,0,.25.34.34,0,0,1-.19.18Zm-.07-.37a.08.08,0,0,0,0,.11.07.07,0,0,0,.1,0,.13.13,0,0,0,0-.06.12.12,0,0,0-.05-.05.07.07,0,0,0-.1,0Z"/><path class="cls-1" d="M107.06,106.55a5.14,5.14,0,1,1,5.14-5.13A5.13,5.13,0,0,1,107.06,106.55Zm0-9.52a4.39,4.39,0,1,0,4.39,4.39A4.39,4.39,0,0,0,107.06,97Z"/><path class="cls-1" d="M104.3,98.52a.47.47,0,1,1,.47-.47A.47.47,0,0,1,104.3,98.52Zm0-.69a.22.22,0,1,0,.22.22A.22.22,0,0,0,104.3,97.83Z"/><path class="cls-1" d="M103.07,102.78a.85.85,0,1,1,.85-.85A.85.85,0,0,1,103.07,102.78Zm0-1.45a.6.6,0,1,0,.6.6A.6.6,0,0,0,103.07,101.33Z"/><path class="cls-1" d="M107,106.3a.54.54,0,0,1-.22,0,.5.5,0,0,1-.24-.67.55.55,0,0,1,.28-.26.53.53,0,0,1,.39,0,.5.5,0,0,1,.24.67A.49.49,0,0,1,107,106.3Zm0-.76-.09,0a.23.23,0,0,0-.14.13.21.21,0,0,0,0,.19.24.24,0,0,0,.13.15.21.21,0,0,0,.19,0,.24.24,0,0,0,.15-.13.21.21,0,0,0,0-.19.23.23,0,0,0-.13-.14A.19.19,0,0,0,107,105.54Z"/><path class="cls-1" d="M111,103.58a.46.46,0,0,1-.2,0,.44.44,0,0,1-.24-.26.45.45,0,0,1,0-.36.47.47,0,0,1,.27-.25.5.5,0,0,1,.36,0,.47.47,0,0,1,.22.62.46.46,0,0,1-.42.28Zm0-.69h-.08a.22.22,0,0,0-.12.11h0a.2.2,0,0,0,0,.17.24.24,0,0,0,.11.13.25.25,0,0,0,.17,0,.24.24,0,0,0,.13-.11.22.22,0,0,0-.11-.29A.15.15,0,0,0,111,102.89Z"/><path class="cls-1" d="M109.61,105.51a.53.53,0,0,1-.17,0,.4.4,0,0,1-.19-.53h0a.39.39,0,0,1,.53-.19.4.4,0,0,1,.19.53A.41.41,0,0,1,109.61,105.51Zm-.13-.46a.14.14,0,0,0,0,.11.11.11,0,0,0,.08.08.13.13,0,0,0,.19-.07.14.14,0,1,0-.26-.12Z"/><path class="cls-1" d="M108.74,101.22a2.06,2.06,0,0,1-1.86-2.92A2.08,2.08,0,0,1,108,97.24a2,2,0,0,1,1.57.06,2,2,0,0,1,1,2.73A2.06,2.06,0,0,1,108.74,101.22Zm0-3.86a1.88,1.88,0,0,0-.62.11,1.81,1.81,0,0,0-1.08,2.32,1.81,1.81,0,0,0,3.33.14,1.74,1.74,0,0,0,.06-1.38,1.77,1.77,0,0,0-.93-1A1.83,1.83,0,0,0,108.75,97.36Z"/><path class="cls-1" d="M104.09,101.22a.52.52,0,0,1-.21,0,.5.5,0,0,1-.24-.67h0a.5.5,0,0,1,.67-.25.53.53,0,0,1,.26.29.5.5,0,0,1,0,.38.48.48,0,0,1-.28.26A.57.57,0,0,1,104.09,101.22Zm-.23-.61a.26.26,0,0,0,.13.34.25.25,0,0,0,.19,0,.24.24,0,0,0,.15-.33.25.25,0,0,0-.13-.14.25.25,0,0,0-.19,0,.24.24,0,0,0-.15.13Z"/><path class="cls-1" d="M111.15,101.8a.54.54,0,0,1-.25-.06.6.6,0,0,1-.3-.8.58.58,0,0,1,.34-.31.57.57,0,0,1,.46,0,.6.6,0,0,1,.3.8A.61.61,0,0,1,111.15,101.8Zm0-1-.12,0a.35.35,0,0,0-.2.18.35.35,0,0,0,.17.47.34.34,0,0,0,.47-.17.35.35,0,0,0-.17-.47A.4.4,0,0,0,111.15,100.84Z"/><path class="cls-1" d="M108,105.09a.35.35,0,0,1-.14,0,.32.32,0,0,1-.17-.19.31.31,0,0,1,0-.25h0a.32.32,0,0,1,.19-.17.31.31,0,0,1,.25,0,.32.32,0,0,1,.17.19.31.31,0,0,1,0,.25A.34.34,0,0,1,108,105.09Zm0-.41h0a.1.1,0,0,0,0,0h0a.07.07,0,0,0,0,.1H108a.1.1,0,0,0,0,0,.13.13,0,0,0,0-.06.1.1,0,0,0,0,0Z"/><path class="cls-1" d="M108.87,100.76a1.69,1.69,0,0,1-.73-.16,1.76,1.76,0,0,1-.86-2.33h0a1.77,1.77,0,0,1,1-.91,1.73,1.73,0,0,1,1.34.06,1.75,1.75,0,0,1-.74,3.34Zm-1.36-2.38a1.5,1.5,0,1,0,2-.73,1.5,1.5,0,0,0-2,.73Z"/><path class="cls-2" d="M115.07,96.75a28.67,28.67,0,0,1,9.18-1.5,29,29,0,1,1-29,29,28.74,28.74,0,0,1,5-16.19"/><path class="cls-2" d="M103.61,77.63a50.43,50.43,0,0,1,20.64-4.38A51.1,51.1,0,1,1,87.09,89.38"/><path class="cls-2" d="M128.82,37.31a87.14,87.14,0,0,1,82.93,86.94c0,48-39.25,87.06-87.5,87.06s-87.5-39.06-87.5-87.06c0-38.64,26.06-73,63.41-83.68"/><path class="cls-2" d="M63.72,16.06a124.44,124.44,0,1,1-14.28,9.37"/><path class="cls-2" d="M179,91.08A64.25,64.25,0,1,1,163.5,73.76"/><path class="cls-2" d="M94.75,151.22a39.89,39.89,0,1,1,16.66,10.91"/><path class="cls-2" d="M123.64,198.24a74.05,74.05,0,1,1,24.92-4.12"/><path class="cls-2" d="M68.27,208.27a100.39,100.39,0,1,1,21.24,10.82"/><path class="cls-2" d="M160.63,231.77a113.8,113.8,0,1,1,20.63-9.41"/></g></g></g></svg>